<svg xmlns="http://www.w3.org/2000/svg" viewBox="0 0 125.47 66.61"><defs><style>.cls-1,.cls-2,.cls-4{fill:#fff;}.cls-2{font-size:5.34px;}.cls-2,.cls-4{font-family:BRONSON-Black, BRONSON;font-weight:800;}.cls-3{letter-spacing:-0.12em;}.cls-4{font-size:8.82px;}</style></defs><g id="레이어_2" data-name="레이어 2"><g id="레이어_1-2" data-name="레이어 1"><path class="cls-1" d="M125.21,19C79.58,13.53,60.45.55,51.38,0h0A19.53,19.53,0,0,1,64.84,13.08a4.29,4.29,0,0,1-.12,3.38C63.47,18.58,59.28,19,58.14,19h0c1.14.07,5.33.45,6.58,2.57A4.29,4.29,0,0,1,64.84,25,19.53,19.53,0,0,1,51.38,38.07h0c9.07-.55,28.2-13.53,73.83-19"/><path class="cls-1" d="M48.43,19c-.57,0-1.13,0-1.69-.05-1.34-.06-2.68-.15-4-.27-1.71-.16-3.41-.37-5.1-.67a31.29,31.29,0,0,1-5-1.25,9.93,9.93,0,0,1-3.65-2,3.88,3.88,0,0,1-.94-1.33,3.83,3.83,0,0,1,.47-3.15A20.25,20.25,0,0,1,33.3,4.18,19.38,19.38,0,0,1,41,0s-6.2.3-15.69,9.91a22.9,22.9,0,0,1-6.64,4.74A51.48,51.48,0,0,1,.26,19h0a51.48,51.48,0,0,1,18.45,4.38,22.75,22.75,0,0,1,6.64,4.75c9.49,9.6,15.69,9.9,15.69,9.9a19.26,19.26,0,0,1-7.74-4.18,20.21,20.21,0,0,1-4.77-6.13,3.84,3.84,0,0,1-.47-3.15A3.83,3.83,0,0,1,29,23.27a10.08,10.08,0,0,1,3.65-2,30.22,30.22,0,0,1,5-1.24c1.69-.3,3.39-.52,5.1-.67,1.33-.13,2.67-.22,4-.28L48.43,19h0Z"/><text class="cls-2" transform="translate(29.71 64.89)">CRE<tspan class="cls-3" x="13.68" y="0">A</tspan><tspan x="18.28" y="0">TE DIRECTION</tspan></text><text class="cls-4" transform="translate(0 56.55)">DIRECTIONAL WEIGHT</text></g></g></svg>