<svg xmlns="http://www.w3.org/2000/svg" viewBox="0 0 146.14 76.28"><defs><style>.cls-1,.cls-2,.cls-5{fill:#fff;}.cls-2{font-size:6.24px;}.cls-2,.cls-5{font-family:BRONSON-Black, BRONSON;font-weight:800;}.cls-3{letter-spacing:-0.12em;}.cls-4{letter-spacing:0em;}.cls-5{font-size:10.27px;}</style></defs><g id="레이어_2" data-name="레이어 2"><g id="레이어_2-2" data-name="레이어 2"><path class="cls-1" d="M67.38,22.26c-.59,0,6.24,0,8,3a5,5,0,0,1,.14,3.95,22.8,22.8,0,0,1-15.73,15.3h0c10.61-.65,33-15.83,86.35-22.26"/><path class="cls-1" d="M0,22.27a60.35,60.35,0,0,1,21.58,5.12,27,27,0,0,1,7.76,5.55C40.44,44.17,47.7,44.52,47.7,44.53a22.69,22.69,0,0,1-9.07-4.89,23.66,23.66,0,0,1-5.57-7.18,4.42,4.42,0,0,1-.54-3.68,4.36,4.36,0,0,1,1.09-1.56,11.71,11.71,0,0,1,4.27-2.33,36.45,36.45,0,0,1,5.82-1.46c2-.35,4-.6,6-.78,1.56-.15,3.12-.25,4.69-.32.65,0,1.31,0,2-.06"/><path class="cls-1" d="M67.38,22.27c-.59,0,6.24,0,8-3a5,5,0,0,0,.14-3.95A22.8,22.8,0,0,0,59.79,0h0c10.61.65,33,15.83,86.35,22.26"/><path class="cls-1" d="M0,22.26a60.56,60.56,0,0,0,21.58-5.12,27,27,0,0,0,7.76-5.55C40.44.36,47.7,0,47.7,0a22.69,22.69,0,0,0-9.07,4.89,23.74,23.74,0,0,0-5.57,7.17,4.45,4.45,0,0,0-.54,3.69,4.36,4.36,0,0,0,1.09,1.56,11.71,11.71,0,0,0,4.27,2.33A36.45,36.45,0,0,0,43.7,21.1c2,.35,4,.59,6,.78,1.56.14,3.12.25,4.69.32.65,0,1.31.05,2,.06"/><text class="cls-2" transform="translate(34.45 74.27)">CRE<tspan class="cls-3" x="16" y="0">A</tspan><tspan class="cls-4" x="21.38" y="0">TE DIRECTION</tspan></text><text class="cls-5" transform="translate(0 63.48)">DIRECTIONAL WEIGHT</text></g></g></svg>