<svg xmlns="http://www.w3.org/2000/svg" viewBox="0 0 146.75 74.91"><defs><style>.cls-1,.cls-2,.cls-5{fill:#fff;}.cls-2{font-size:6.24px;}.cls-2,.cls-5{font-family:BRONSON-Black, BRONSON;font-weight:800;}.cls-3{letter-spacing:-0.12em;}.cls-4{letter-spacing:0em;}.cls-5{font-size:10.31px;}</style></defs><g id="레이어_2" data-name="레이어 2"><g id="레이어_1-2" data-name="레이어 1"><path class="cls-1" d="M146.44,22.26C93.07,15.83,70.71.65,60.1,0h0A22.82,22.82,0,0,1,75.83,15.3a5,5,0,0,1-.14,3.95c-1.46,2.48-6.36,2.93-7.69,3h0c1.33.08,6.23.53,7.69,3a5,5,0,0,1,.14,3.95A22.82,22.82,0,0,1,60.1,44.53h0c10.61-.65,33-15.83,86.34-22.26"/><path class="cls-1" d="M56.64,22.26q-1,0-2-.06c-1.56-.07-3.12-.18-4.68-.32-2-.19-4-.43-6-.78a36.56,36.56,0,0,1-5.83-1.46,11.75,11.75,0,0,1-4.26-2.33,4.52,4.52,0,0,1-1.1-1.56,4.49,4.49,0,0,1,.55-3.69,23.74,23.74,0,0,1,5.57-7.17A22.72,22.72,0,0,1,48,0S40.74.36,29.65,11.59a26.86,26.86,0,0,1-7.77,5.55A60.44,60.44,0,0,1,.31,22.26h0a60.22,60.22,0,0,1,21.57,5.12,26.86,26.86,0,0,1,7.77,5.55C40.74,44.17,48,44.52,48,44.53a22.72,22.72,0,0,1-9.06-4.89,23.66,23.66,0,0,1-5.57-7.18,4.46,4.46,0,0,1-.55-3.68,4.52,4.52,0,0,1,1.1-1.56,11.75,11.75,0,0,1,4.26-2.33A36.56,36.56,0,0,1,44,23.43c2-.35,4-.6,6-.78,1.56-.15,3.12-.25,4.68-.32l2-.06h0Z"/><text class="cls-2" transform="translate(34.75 72.9)">CRE<tspan class="cls-3" x="16" y="0">A</tspan><tspan class="cls-4" x="21.38" y="0">TE DIRECTION</tspan></text><text class="cls-5" transform="translate(0 63.14)">DIRECTIONAL WEIGHT</text></g></g></svg>