<svg xmlns="http://www.w3.org/2000/svg" viewBox="0 0 153.77 41.79"><defs><style>.cls-1{fill:#fff;}</style></defs><g id="레이어_2" data-name="레이어 2"><g id="레이어_1-2" data-name="레이어 1"><path class="cls-1" d="M29.5,0a17.6,17.6,0,0,1,7,1.43,18.3,18.3,0,0,1,9.66,9.66,17.5,17.5,0,0,1,1.43,7.05v5.51a17.46,17.46,0,0,1-1.43,7.05,18.3,18.3,0,0,1-9.66,9.66,17.6,17.6,0,0,1-7,1.43H18.14a17.67,17.67,0,0,1-7-1.43A18.4,18.4,0,0,1,1.43,30.7a17.63,17.63,0,0,1-1.43-7V18.14a17.67,17.67,0,0,1,1.43-7,18.4,18.4,0,0,1,9.66-9.66A17.67,17.67,0,0,1,18.14,0Zm5.09,18.14a12.79,12.79,0,0,0-.88-5.32,6.39,6.39,0,0,0-2.13-2.72,5.82,5.82,0,0,0-2.7-1A24.16,24.16,0,0,0,26.4,9H21.19a23.65,23.65,0,0,0-2.46.15,5.75,5.75,0,0,0-2.66,1,6.48,6.48,0,0,0-2.14,2.72,12.79,12.79,0,0,0-.88,5.32v5.51A12.79,12.79,0,0,0,13.93,29a6.48,6.48,0,0,0,2.14,2.72,5.75,5.75,0,0,0,2.66,1,23.65,23.65,0,0,0,2.46.15H26.4a24.16,24.16,0,0,0,2.48-.15,5.82,5.82,0,0,0,2.7-1A6.39,6.39,0,0,0,33.71,29a12.79,12.79,0,0,0,.88-5.32Z"/><path class="cls-1" d="M85.4,0V9h-14V41.79H58.63V9H35.09L25.77,0Z"/><path class="cls-1" d="M111.88,9a22,22,0,0,1,7.05,1.12,19,19,0,0,1,5.77,3,14.87,14.87,0,0,1,3.89,4.54A11.35,11.35,0,0,1,130,23.24v4.33a11.26,11.26,0,0,1-1.43,5.53,14.87,14.87,0,0,1-3.89,4.54,19.19,19.19,0,0,1-5.77,3,22,22,0,0,1-7.05,1.11H100.53a22.08,22.08,0,0,1-7.06-1.11,19.26,19.26,0,0,1-5.76-3,14.91,14.91,0,0,1-3.9-4.54,11.37,11.37,0,0,1-1.43-5.53V23.24a11.45,11.45,0,0,1,1.43-5.59,14.91,14.91,0,0,1,3.9-4.54,19,19,0,0,1,5.76-3A22.08,22.08,0,0,1,100.53,9ZM117,23.24a8.24,8.24,0,0,0-.88-4.22A5.51,5.51,0,0,0,114,16.89a6.7,6.7,0,0,0-2.69-.79q-1.44-.12-2.49-.12h-5.21q-1,0-2.46.12a6.61,6.61,0,0,0-2.66.79A5.6,5.6,0,0,0,96.31,19a8.34,8.34,0,0,0-.88,4.22v4.33a8.16,8.16,0,0,0,.88,4.15,5.63,5.63,0,0,0,2.14,2.14,6.77,6.77,0,0,0,2.66.79q1.41.12,2.46.12h5.21q1.05,0,2.49-.12a6.86,6.86,0,0,0,2.69-.79,5.54,5.54,0,0,0,2.13-2.14,8.06,8.06,0,0,0,.88-4.15Z"/><path class="cls-1" d="M153.77,0V41.79H141V9h-5V0Z"/></g></g></svg>